<svg id="svg" version="1.1" xmlns="http://www.w3.org/2000/svg" xmlns:xlink="http://www.w3.org/1999/xlink" width="400" height="396" viewBox="0, 0, 400,396"><g id="svgg"><path id="path0" d="M294.454 117.587 C 284.804 119.928,279.872 127.264,279.920 139.208 C 279.978 153.748,287.535 161.188,302.246 161.188 C 312.244 161.188,317.644 157.863,320.980 149.651 C 322.061 146.991,322.042 146.142,320.904 146.133 C 320.515 146.130,319.396 145.843,318.416 145.496 C 316.051 144.659,311.425 143.366,310.795 143.366 C 310.518 143.366,310.066 144.089,309.791 144.972 C 307.425 152.551,298.078 153.892,294.412 147.179 C 292.940 144.483,293.001 133.629,294.501 131.216 C 298.469 124.835,305.823 125.064,309.558 131.683 C 310.054 132.562,310.295 132.565,314.257 131.730 C 322.192 130.059,321.921 130.285,320.181 126.806 C 315.978 118.406,305.926 114.804,294.454 117.587 M41.647 120.693 C 40.997 122.381,39.358 126.703,38.006 130.297 C 36.653 133.891,34.662 139.149,33.580 141.980 C 31.697 146.908,31.148 148.347,29.803 151.881 C 29.471 152.752,28.956 154.027,28.659 154.713 C 28.362 155.400,28.119 156.164,28.119 156.412 C 28.119 156.660,27.762 157.562,27.327 158.416 C 26.891 159.270,26.535 160.065,26.535 160.182 C 26.535 160.300,29.610 160.396,33.369 160.396 L 40.203 160.396 40.645 158.911 C 40.887 158.094,41.326 156.579,41.620 155.545 L 42.153 153.663 49.933 153.663 L 57.713 153.663 58.393 155.941 C 58.767 157.193,59.259 158.708,59.486 159.307 L 59.898 160.396 66.823 160.396 C 73.261 160.396,73.728 160.347,73.467 159.703 C 73.313 159.322,73.009 158.475,72.792 157.822 C 72.575 157.168,72.163 156.099,71.878 155.446 C 71.593 154.792,69.723 149.891,67.723 144.554 C 65.723 139.218,63.835 134.290,63.528 133.604 C 63.221 132.917,62.970 132.157,62.970 131.915 C 62.970 131.673,62.810 131.165,62.615 130.787 C 62.419 130.408,61.953 129.297,61.577 128.317 C 61.202 127.337,60.749 126.178,60.570 125.743 C 60.392 125.307,59.655 123.303,58.935 121.289 L 57.624 117.628 50.227 117.626 L 42.830 117.624 41.647 120.693 M78.020 139.010 L 78.020 160.396 95.248 160.396 L 112.475 160.396 112.475 155.254 L 112.475 150.112 102.079 150.007 L 91.683 149.901 91.580 133.762 L 91.476 117.624 84.748 117.624 L 78.020 117.624 78.020 139.010 M118.812 139.010 L 118.812 160.396 136.040 160.396 L 153.267 160.396 153.261 155.743 C 153.253 149.554,154.329 150.131,142.555 150.007 L 132.475 149.901 132.372 133.762 L 132.268 117.624 125.540 117.624 L 118.812 117.624 118.812 139.010 M160.000 139.010 L 160.000 160.396 166.733 160.396 L 173.465 160.396 173.465 139.010 L 173.465 117.624 166.733 117.624 L 160.000 117.624 160.000 139.010 M192.142 125.452 C 190.543 129.750,188.984 133.829,188.677 134.515 C 188.370 135.202,188.119 135.962,188.119 136.204 C 188.119 136.446,187.937 136.954,187.715 137.332 C 187.493 137.710,186.794 139.446,186.161 141.188 C 185.528 142.931,184.631 145.337,184.168 146.535 C 183.705 147.733,183.050 149.515,182.713 150.495 C 182.375 151.475,181.866 152.812,181.580 153.465 C 181.294 154.119,180.703 155.634,180.267 156.832 C 179.831 158.030,179.351 159.322,179.200 159.703 C 178.945 160.347,179.408 160.396,185.713 160.396 C 190.795 160.396,192.540 160.272,192.658 159.901 C 192.744 159.629,193.209 158.114,193.691 156.535 L 194.566 153.663 202.242 153.663 C 211.003 153.663,209.971 153.193,211.364 157.822 L 212.079 160.198 219.079 160.306 L 226.078 160.414 224.473 156.148 C 223.591 153.801,222.543 151.143,222.146 150.242 C 221.748 149.340,221.301 148.092,221.152 147.469 C 221.003 146.846,220.751 146.158,220.592 145.941 C 220.433 145.723,219.931 144.475,219.476 143.168 C 219.022 141.861,218.176 139.545,217.597 138.020 C 217.018 136.495,216.050 133.911,215.446 132.277 C 214.484 129.673,210.865 120.232,210.095 118.317 C 209.843 117.691,209.098 117.624,202.433 117.630 L 195.050 117.637 192.142 125.452 M230.495 139.010 L 230.495 160.396 236.832 160.396 L 243.168 160.396 243.168 149.109 C 243.168 142.578,243.320 137.822,243.529 137.822 C 243.845 137.822,249.996 146.492,257.147 157.017 L 259.443 160.396 265.959 160.396 L 272.475 160.396 272.475 139.010 L 272.475 117.624 266.139 117.624 L 259.802 117.624 259.802 129.109 C 259.802 135.949,259.653 140.594,259.433 140.594 C 259.052 140.594,253.714 133.023,245.825 121.295 L 243.366 117.639 236.931 117.631 L 230.495 117.624 230.495 139.010 M328.713 139.010 L 328.713 160.396 346.943 160.396 L 365.174 160.396 365.062 155.743 L 364.950 151.089 353.564 150.984 L 342.178 150.879 342.178 146.535 L 342.178 142.191 352.574 142.086 L 362.970 141.980 362.970 137.822 L 362.970 133.663 352.574 133.558 L 342.178 133.452 342.178 130.092 L 342.178 126.733 353.267 126.733 L 364.356 126.733 364.356 122.178 L 364.356 117.624 346.535 117.624 L 328.713 117.624 328.713 139.010 M52.525 136.456 C 53.681 140.148,54.634 143.391,54.641 143.663 C 54.655 144.216,45.732 144.407,45.424 143.861 C 45.332 143.698,45.658 142.317,46.148 140.792 C 46.638 139.267,47.425 136.683,47.897 135.050 C 48.368 133.416,48.923 131.770,49.130 131.392 C 49.336 131.013,49.505 130.419,49.505 130.071 C 49.505 128.082,50.676 130.559,52.525 136.456 M202.772 129.642 C 202.772 129.717,203.683 132.702,204.796 136.275 C 205.909 139.849,206.910 143.084,207.020 143.465 C 207.204 144.098,206.805 144.158,202.422 144.158 C 199.783 144.158,197.624 144.076,197.624 143.974 C 197.624 143.873,197.891 142.937,198.218 141.895 C 198.545 140.853,199.072 139.109,199.389 138.020 C 201.597 130.435,201.929 129.505,202.424 129.505 C 202.616 129.505,202.772 129.567,202.772 129.642 M53.430 177.197 C 53.337 177.290,50.590 177.561,47.324 177.801 C 26.648 179.318,22.411 186.257,22.402 218.614 C 22.393 252.218,26.002 258.165,47.921 260.664 C 54.310 261.392,105.027 261.396,110.693 260.669 C 121.594 259.270,125.032 258.130,128.843 254.646 C 132.204 251.575,133.502 248.721,134.962 241.188 C 135.827 236.725,135.956 202.784,135.126 198.020 C 133.384 188.023,130.802 183.643,125.010 180.854 C 120.837 178.845,118.600 178.404,107.679 177.437 C 103.350 177.054,53.792 176.835,53.430 177.197 M146.303 178.185 C 146.213 178.276,146.139 196.768,146.139 219.279 L 146.139 260.209 158.911 260.104 L 171.683 260.000 171.658 257.030 C 171.644 255.396,171.589 241.673,171.535 226.535 L 171.438 199.010 172.551 198.907 C 174.003 198.772,174.169 198.912,176.431 202.178 C 177.487 203.703,185.390 214.842,193.993 226.931 C 216.555 258.636,216.929 259.159,217.413 259.703 C 217.755 260.088,222.705 260.198,239.620 260.198 L 261.386 260.198 261.386 219.208 L 261.386 178.218 248.648 178.218 L 235.909 178.218 236.166 208.713 L 236.422 239.208 235.055 239.208 C 233.542 239.208,235.709 242.072,213.470 210.693 C 209.843 205.574,203.857 197.131,200.170 191.930 C 196.482 186.729,192.824 181.561,192.040 180.445 L 190.615 178.416 168.542 178.218 C 156.401 178.109,146.394 178.094,146.303 178.185 M273.432 178.185 C 273.342 178.276,273.267 196.766,273.267 219.274 L 273.267 260.198 319.215 260.198 L 365.162 260.198 365.056 250.481 L 364.950 240.765 332.030 240.785 C 313.923 240.796,298.819 240.694,298.465 240.558 C 297.908 240.344,297.822 239.446,297.822 233.821 L 297.822 227.331 329.406 227.230 L 360.990 227.129 361.097 218.319 L 361.203 209.510 329.612 209.408 L 298.020 209.307 298.020 203.366 L 298.020 197.426 331.386 197.324 L 364.752 197.223 364.752 187.724 L 364.752 178.224 319.175 178.122 C 294.107 178.066,273.523 178.094,273.432 178.185 M102.913 198.951 C 109.491 200.823,110.890 204.554,110.880 220.198 C 110.868 239.647,110.340 239.981,79.575 239.993 C 58.451 240.002,55.247 239.671,51.406 237.089 C 48.514 235.145,47.526 230.885,47.525 220.362 C 47.524 205.046,49.170 200.717,55.644 199.005 C 59.830 197.897,99.055 197.853,102.913 198.951 " stroke="none" fill="#f9f9fa" fill-rule="evenodd"></path><path id="path1" d="M177.426 0.456 C 172.952 0.765,168.788 1.217,164.651 1.840 C 163.833 1.963,163.065 2.223,162.944 2.418 C 162.824 2.613,162.225 2.772,161.613 2.772 C 159.871 2.772,153.515 3.957,153.280 4.326 C 153.164 4.508,152.089 4.787,150.891 4.947 C 149.693 5.107,148.535 5.376,148.317 5.545 C 148.099 5.714,146.985 5.978,145.842 6.131 C 144.698 6.285,143.762 6.572,143.762 6.770 C 143.762 6.967,143.228 7.129,142.574 7.129 C 141.921 7.129,141.386 7.327,141.386 7.570 C 141.386 7.833,140.915 7.942,140.219 7.839 C 139.577 7.745,139.132 7.797,139.229 7.955 C 139.327 8.113,138.515 8.365,137.426 8.515 C 136.191 8.685,135.446 8.983,135.446 9.308 C 135.446 9.642,134.449 10.007,132.673 10.324 C 130.798 10.660,129.901 10.999,129.901 11.374 C 129.901 11.679,129.715 11.813,129.488 11.672 C 129.260 11.532,128.859 11.595,128.597 11.812 C 128.334 12.029,127.436 12.334,126.602 12.490 C 125.768 12.646,124.253 13.196,123.236 13.712 C 122.218 14.228,121.163 14.651,120.891 14.652 C 120.619 14.653,120.396 14.816,120.396 15.015 C 120.396 15.213,119.683 15.496,118.812 15.644 C 117.941 15.791,117.228 16.074,117.228 16.272 C 117.228 16.471,116.871 16.634,116.436 16.634 C 116.000 16.634,115.644 16.770,115.644 16.937 C 115.644 17.103,114.752 17.556,113.663 17.943 C 112.574 18.330,111.683 18.810,111.683 19.011 C 111.683 19.211,110.926 19.576,110.000 19.822 C 109.074 20.068,107.960 20.590,107.525 20.983 C 107.089 21.375,106.178 21.814,105.499 21.957 C 104.821 22.100,103.929 22.521,103.519 22.892 C 103.108 23.264,101.438 24.235,99.808 25.051 C 98.178 25.867,97.019 26.539,97.234 26.543 C 97.448 26.548,96.866 26.896,95.941 27.316 C 95.015 27.736,94.257 28.238,94.257 28.432 C 94.257 28.626,93.534 29.023,92.649 29.315 C 91.764 29.607,90.867 30.170,90.655 30.566 C 90.443 30.963,90.033 31.287,89.743 31.287 C 89.454 31.287,88.545 31.822,87.723 32.475 C 86.900 33.129,86.076 33.663,85.891 33.663 C 85.540 33.663,84.397 34.522,83.064 35.787 C 82.637 36.193,81.884 36.549,81.392 36.579 C 80.900 36.609,80.564 36.812,80.645 37.030 C 80.726 37.248,80.124 37.861,79.307 38.393 C 78.490 38.925,77.632 39.582,77.400 39.854 C 77.168 40.125,76.733 40.403,76.433 40.471 C 76.133 40.539,75.420 41.040,74.848 41.584 C 72.818 43.518,70.810 45.149,70.457 45.149 C 70.260 45.149,70.099 45.346,70.099 45.587 C 70.099 45.828,69.822 45.919,69.484 45.789 C 69.146 45.660,68.972 45.719,69.097 45.922 C 69.223 46.125,68.920 46.651,68.425 47.092 C 67.930 47.533,66.923 48.431,66.187 49.087 C 65.451 49.744,64.731 50.208,64.587 50.119 C 64.443 50.030,64.003 50.435,63.610 51.018 C 63.217 51.602,62.300 52.525,61.572 53.069 C 60.844 53.614,60.063 54.460,59.836 54.950 C 59.609 55.441,59.247 55.842,59.032 55.842 C 58.446 55.842,55.446 58.705,55.446 59.264 C 55.446 59.531,55.134 59.865,54.752 60.008 C 54.371 60.150,53.168 61.313,52.079 62.592 C 48.840 66.395,48.158 67.021,47.701 66.610 C 47.534 66.460,47.519 66.548,47.667 66.806 C 47.815 67.064,47.532 67.702,47.037 68.223 C 45.696 69.637,44.048 71.634,43.075 73.023 C 42.599 73.702,41.891 74.490,41.501 74.775 C 41.111 75.060,40.792 75.529,40.792 75.818 C 40.792 76.108,40.347 76.636,39.802 76.993 C 39.257 77.350,38.809 77.861,38.806 78.128 C 38.802 78.395,38.267 79.217,37.617 79.955 C 36.967 80.692,36.436 81.520,36.436 81.793 C 36.436 82.067,36.168 82.394,35.842 82.519 C 35.515 82.645,35.248 82.981,35.248 83.266 C 35.248 83.552,34.891 84.042,34.455 84.356 C 34.020 84.670,33.663 85.065,33.663 85.233 C 33.663 85.400,33.040 86.355,32.277 87.354 C 31.515 88.352,30.891 89.423,30.891 89.733 C 30.891 90.043,30.710 90.297,30.489 90.297 C 30.267 90.297,29.778 90.965,29.401 91.782 C 29.024 92.599,28.403 93.556,28.021 93.908 C 27.639 94.260,27.327 94.761,27.327 95.020 C 27.327 95.280,27.151 95.383,26.935 95.250 C 26.714 95.113,26.643 95.266,26.772 95.603 C 26.897 95.929,26.621 96.603,26.158 97.100 C 25.695 97.597,25.214 98.409,25.090 98.903 C 24.966 99.397,24.725 99.802,24.554 99.802 C 24.384 99.802,24.132 100.248,23.996 100.792 C 23.859 101.337,23.572 101.782,23.359 101.782 C 23.145 101.782,22.970 102.016,22.970 102.302 C 22.970 102.587,22.658 103.166,22.277 103.589 C 21.896 104.011,21.566 104.579,21.545 104.851 C 21.523 105.124,21.478 105.703,21.446 106.139 C 21.413 106.574,21.147 106.931,20.855 106.931 C 20.563 106.931,20.116 107.622,19.863 108.468 C 19.610 109.313,19.137 110.225,18.813 110.494 C 18.489 110.763,18.026 111.720,17.784 112.620 C 17.542 113.521,17.219 114.347,17.067 114.455 C 16.627 114.771,15.446 117.483,15.446 118.179 C 15.446 118.527,15.267 118.812,15.050 118.812 C 14.832 118.812,14.653 119.092,14.653 119.434 C 14.653 119.777,14.225 120.802,13.701 121.712 C 13.177 122.622,12.525 124.391,12.252 125.644 C 11.979 126.896,11.545 127.921,11.288 127.921 C 11.023 127.921,10.594 129.122,10.297 130.693 C 9.985 132.349,9.577 133.465,9.284 133.465 C 8.990 133.465,8.612 134.510,8.340 136.073 C 8.090 137.507,7.716 139.022,7.507 139.439 C 7.299 139.857,6.959 140.539,6.751 140.956 C 6.543 141.372,6.253 142.620,6.106 143.728 C 5.959 144.836,5.704 145.743,5.539 145.743 C 5.373 145.743,5.119 146.589,4.973 147.624 C 4.827 148.658,4.451 150.065,4.137 150.750 C 3.824 151.435,3.372 153.396,3.134 155.107 C 2.896 156.818,2.539 158.527,2.341 158.906 C 2.142 159.284,1.980 160.044,1.980 160.594 C 1.980 161.145,1.812 161.904,1.606 162.283 C -0.596 166.327,-0.596 229.713,1.606 233.757 C 1.812 234.135,1.980 234.895,1.980 235.446 C 1.980 235.996,2.142 236.756,2.341 237.134 C 2.539 237.512,2.896 239.222,3.134 240.933 C 3.372 242.644,3.824 244.604,4.137 245.289 C 4.451 245.974,4.827 247.381,4.973 248.416 C 5.119 249.450,5.373 250.297,5.539 250.297 C 5.704 250.297,5.959 251.204,6.106 252.312 C 6.253 253.420,6.543 254.667,6.751 255.084 C 6.959 255.501,7.299 256.183,7.507 256.600 C 7.716 257.018,8.088 258.520,8.335 259.938 C 8.582 261.356,9.013 262.605,9.293 262.712 C 9.573 262.820,10.036 264.080,10.320 265.513 C 10.605 266.946,11.045 268.119,11.297 268.119 C 11.549 268.119,11.979 269.144,12.252 270.396 C 12.525 271.649,13.177 273.418,13.701 274.328 C 14.225 275.238,14.653 276.263,14.653 276.605 C 14.653 276.948,14.832 277.228,15.050 277.228 C 15.267 277.228,15.446 277.513,15.446 277.861 C 15.446 278.557,16.627 281.269,17.067 281.584 C 17.219 281.693,17.542 282.519,17.784 283.419 C 18.026 284.320,18.489 285.276,18.813 285.545 C 19.137 285.814,19.610 286.726,19.863 287.572 C 20.116 288.417,20.563 289.109,20.855 289.109 C 21.147 289.109,21.413 289.465,21.446 289.901 C 21.478 290.337,21.523 290.916,21.545 291.188 C 21.566 291.460,21.896 292.029,22.277 292.451 C 22.658 292.873,22.970 293.452,22.970 293.738 C 22.970 294.024,23.145 294.257,23.359 294.257 C 23.572 294.257,23.859 294.703,23.996 295.248 C 24.132 295.792,24.384 296.238,24.554 296.238 C 24.725 296.238,24.966 296.642,25.090 297.137 C 25.214 297.631,25.695 298.442,26.158 298.939 C 26.621 299.436,26.897 300.110,26.772 300.437 C 26.643 300.773,26.714 300.926,26.935 300.789 C 27.151 300.656,27.327 300.760,27.327 301.019 C 27.327 301.279,27.639 301.779,28.021 302.132 C 28.403 302.484,29.024 303.441,29.401 304.257 C 29.778 305.074,30.267 305.743,30.489 305.743 C 30.710 305.743,30.891 305.996,30.891 306.306 C 30.891 306.616,31.515 307.687,32.277 308.686 C 33.040 309.685,33.663 310.587,33.663 310.692 C 33.663 310.904,34.703 312.227,35.703 313.288 C 36.063 313.669,36.476 314.355,36.621 314.812 C 36.766 315.270,37.051 315.644,37.254 315.644 C 37.458 315.644,37.624 315.892,37.624 316.195 C 37.624 316.499,37.891 316.850,38.218 316.975 C 38.545 317.100,38.812 317.472,38.812 317.800 C 38.812 318.129,39.257 318.690,39.802 319.046 C 40.347 319.403,40.792 319.932,40.792 320.221 C 40.792 320.510,41.111 320.980,41.501 321.265 C 41.891 321.549,42.640 322.406,43.165 323.168 C 43.689 323.931,44.350 324.697,44.634 324.871 C 44.917 325.045,45.149 325.363,45.149 325.577 C 45.149 325.792,45.777 326.595,46.544 327.363 C 47.342 328.160,47.824 328.960,47.669 329.231 C 47.520 329.490,47.544 329.571,47.722 329.409 C 47.900 329.248,48.597 329.703,49.270 330.421 C 49.944 331.138,51.445 332.741,52.606 333.981 C 53.767 335.222,54.836 336.239,54.982 336.240 C 55.128 336.242,55.551 336.776,55.922 337.428 C 56.293 338.080,56.872 338.614,57.209 338.614 C 57.546 338.614,57.822 338.886,57.822 339.218 C 57.822 339.550,58.252 339.985,58.778 340.185 C 59.304 340.385,59.842 340.871,59.974 341.264 C 60.107 341.658,60.818 342.426,61.555 342.970 C 62.292 343.515,63.217 344.438,63.610 345.021 C 64.003 345.605,64.443 346.009,64.588 345.920 C 64.733 345.831,65.363 346.210,65.990 346.762 C 66.616 347.315,67.627 348.207,68.235 348.745 C 68.844 349.282,69.235 349.894,69.106 350.104 C 68.974 350.318,69.140 350.382,69.484 350.250 C 69.822 350.120,70.099 350.212,70.099 350.453 C 70.099 350.694,70.260 350.891,70.457 350.891 C 70.810 350.891,72.818 352.521,74.848 354.455 C 75.420 355.000,76.133 355.501,76.433 355.569 C 76.733 355.637,77.168 355.914,77.400 356.186 C 77.632 356.457,78.490 357.115,79.307 357.647 C 80.124 358.179,80.726 358.792,80.645 359.010 C 80.564 359.228,80.900 359.430,81.392 359.460 C 81.884 359.490,82.637 359.847,83.064 360.252 C 84.397 361.518,85.540 362.376,85.891 362.376 C 86.076 362.376,86.900 362.911,87.723 363.564 C 88.545 364.218,89.454 364.752,89.743 364.752 C 90.033 364.752,90.443 365.077,90.655 365.473 C 90.867 365.870,91.764 366.433,92.649 366.725 C 93.534 367.017,94.257 367.414,94.257 367.608 C 94.257 367.801,95.015 368.303,95.941 368.724 C 96.866 369.144,97.448 369.491,97.234 369.496 C 97.019 369.501,98.178 370.173,99.808 370.989 C 101.438 371.805,103.108 372.776,103.519 373.147 C 103.929 373.518,104.821 373.939,105.499 374.082 C 106.178 374.226,107.089 374.664,107.525 375.057 C 107.960 375.450,109.074 375.972,110.000 376.217 C 110.926 376.463,111.683 376.828,111.683 377.029 C 111.683 377.229,112.574 377.710,113.663 378.096 C 114.752 378.483,115.644 378.936,115.644 379.103 C 115.644 379.270,116.000 379.406,116.436 379.406 C 116.871 379.406,117.228 379.568,117.228 379.767 C 117.228 379.966,117.941 380.249,118.812 380.396 C 119.683 380.543,120.396 380.826,120.396 381.025 C 120.396 381.224,120.620 381.386,120.894 381.386 C 121.168 381.386,122.193 381.807,123.171 382.322 C 124.150 382.837,125.663 383.388,126.535 383.546 C 127.406 383.704,128.334 384.011,128.597 384.228 C 128.859 384.445,129.260 384.508,129.488 384.367 C 129.715 384.227,129.901 384.361,129.901 384.666 C 129.901 385.040,130.798 385.380,132.673 385.715 C 134.387 386.021,135.446 386.402,135.446 386.713 C 135.446 387.028,136.549 387.403,138.416 387.723 C 140.050 388.002,141.386 388.384,141.386 388.571 C 141.386 388.758,141.921 388.911,142.574 388.911 C 143.228 388.911,143.762 389.072,143.762 389.270 C 143.762 389.467,144.698 389.754,145.842 389.908 C 146.985 390.062,148.099 390.326,148.317 390.495 C 148.535 390.664,149.693 390.933,150.891 391.093 C 152.089 391.252,153.164 391.532,153.280 391.714 C 153.515 392.082,159.871 393.267,161.613 393.267 C 162.225 393.267,162.824 393.427,162.944 393.622 C 163.169 393.985,163.979 394.141,169.109 394.808 C 182.730 396.579,228.046 396.315,231.381 394.445 C 231.759 394.233,232.608 394.059,233.267 394.059 C 233.927 394.059,234.776 393.894,235.154 393.692 C 235.532 393.490,237.446 393.120,239.406 392.871 C 241.366 392.622,243.505 392.174,244.158 391.875 C 244.812 391.576,246.238 391.210,247.327 391.061 C 248.416 390.913,249.485 390.655,249.703 390.489 C 249.921 390.323,251.034 390.062,252.178 389.908 C 253.321 389.755,254.356 389.467,254.478 389.270 C 254.600 389.072,255.046 388.911,255.469 388.911 C 255.892 388.911,256.238 388.767,256.238 388.592 C 256.238 388.417,257.585 388.047,259.232 387.770 C 260.879 387.493,262.313 387.040,262.420 386.763 C 262.526 386.485,263.852 386.025,265.366 385.739 C 266.880 385.453,268.119 385.113,268.119 384.984 C 268.119 384.682,269.949 383.921,271.485 383.583 C 273.019 383.246,274.851 382.453,274.851 382.126 C 274.851 381.985,275.475 381.753,276.238 381.610 C 277.000 381.467,277.624 381.196,277.624 381.007 C 277.624 380.818,278.337 380.543,279.208 380.396 C 280.079 380.249,280.792 380.009,280.792 379.864 C 280.792 379.393,283.135 378.547,283.616 378.844 C 283.892 379.014,283.978 378.962,283.826 378.717 C 283.685 378.489,283.981 378.199,284.484 378.073 C 284.987 377.947,285.793 377.501,286.276 377.082 C 286.759 376.664,287.810 376.198,288.613 376.047 C 289.415 375.897,290.297 375.453,290.571 375.061 C 290.845 374.670,291.667 374.237,292.396 374.100 C 293.126 373.964,294.066 373.542,294.485 373.163 C 294.904 372.785,296.450 371.863,297.921 371.115 C 299.391 370.367,300.594 369.629,300.594 369.475 C 300.594 369.321,300.995 369.091,301.485 368.964 C 301.975 368.837,302.894 368.283,303.527 367.733 C 304.160 367.183,304.904 366.733,305.180 366.733 C 305.456 366.733,306.211 366.287,306.858 365.743 C 307.506 365.198,308.219 364.752,308.445 364.752 C 308.670 364.752,309.092 364.514,309.383 364.224 C 309.674 363.933,311.113 362.936,312.580 362.010 C 314.047 361.083,315.248 360.182,315.248 360.007 C 315.248 359.833,315.681 359.581,316.211 359.448 C 316.741 359.315,317.288 358.850,317.426 358.415 C 317.658 357.685,318.182 357.463,319.531 357.522 C 319.818 357.534,319.971 357.462,319.870 357.362 C 319.624 357.116,321.378 355.248,321.855 355.248 C 322.062 355.248,322.922 354.634,323.765 353.884 C 324.608 353.134,325.487 352.628,325.718 352.759 C 325.949 352.891,326.006 352.851,325.843 352.672 C 325.391 352.173,327.898 350.115,328.620 350.392 C 329.018 350.545,329.140 350.470,328.962 350.182 C 328.806 349.929,329.236 349.253,329.950 348.629 C 330.645 348.022,331.654 347.127,332.192 346.641 C 332.729 346.155,333.325 345.854,333.515 345.971 C 333.706 346.089,333.861 345.993,333.861 345.758 C 333.861 345.272,339.005 340.198,339.498 340.198 C 339.676 340.198,339.991 339.752,340.198 339.208 C 340.405 338.663,340.850 338.218,341.187 338.218 C 341.524 338.218,342.002 337.772,342.250 337.228 C 342.498 336.683,342.946 336.238,343.244 336.238 C 343.543 336.238,343.906 335.926,344.051 335.545 C 344.350 334.756,347.314 331.881,347.828 331.881 C 348.013 331.881,348.060 331.711,347.932 331.503 C 347.803 331.294,348.149 330.828,348.700 330.467 C 349.252 330.106,349.703 329.628,349.703 329.406 C 349.703 329.184,350.104 328.622,350.594 328.158 C 351.488 327.312,353.171 325.308,355.782 321.980 C 356.551 321.000,357.548 319.823,357.996 319.364 C 358.445 318.906,358.812 318.399,358.812 318.239 C 358.812 318.079,359.436 317.219,360.198 316.328 C 360.960 315.438,361.584 314.555,361.584 314.366 C 361.584 313.816,363.454 312.101,363.741 312.388 C 363.885 312.532,363.888 312.352,363.749 311.988 C 363.588 311.568,363.872 310.923,364.529 310.218 C 365.097 309.608,365.931 308.351,366.381 307.426 C 366.831 306.500,367.363 305.743,367.563 305.743 C 367.763 305.743,368.212 305.030,368.561 304.158 C 368.910 303.287,369.363 302.574,369.568 302.574 C 369.773 302.574,370.210 301.932,370.537 301.148 C 370.865 300.363,371.487 299.342,371.919 298.878 C 372.351 298.415,372.805 297.632,372.929 297.139 C 373.053 296.646,373.313 296.341,373.508 296.462 C 373.702 296.582,373.861 296.328,373.861 295.898 C 373.861 295.468,373.995 295.056,374.158 294.983 C 374.536 294.816,376.238 291.350,376.238 290.749 C 376.238 290.500,376.416 290.297,376.634 290.297 C 376.851 290.297,377.030 290.019,377.030 289.680 C 377.030 289.340,377.181 289.156,377.366 289.270 C 377.551 289.384,377.936 288.504,378.221 287.313 C 378.507 286.123,378.903 285.149,379.101 285.149 C 379.796 285.149,380.397 284.147,380.505 282.809 C 380.565 282.066,380.849 281.264,381.137 281.026 C 381.425 280.789,381.888 279.970,382.167 279.208 C 383.134 276.566,383.561 275.644,383.815 275.644 C 383.955 275.644,384.187 275.020,384.330 274.257 C 384.473 273.495,384.760 272.871,384.968 272.871 C 385.176 272.871,385.347 272.468,385.347 271.974 C 385.347 271.481,385.728 270.367,386.195 269.499 C 386.662 268.631,387.261 267.030,387.527 265.941 C 387.792 264.851,388.079 263.694,388.163 263.368 C 388.248 263.042,388.516 262.596,388.759 262.378 C 389.002 262.159,389.432 260.822,389.716 259.406 C 389.999 257.990,390.442 256.704,390.701 256.548 C 390.959 256.391,391.401 254.915,391.683 253.268 C 391.965 251.620,392.348 250.178,392.533 250.063 C 392.719 249.948,392.871 249.430,392.871 248.911 C 392.871 248.392,393.036 247.866,393.236 247.742 C 393.437 247.618,393.725 246.360,393.876 244.946 C 394.028 243.533,394.286 242.376,394.450 242.376 C 394.615 242.376,394.870 241.308,395.018 240.002 C 395.166 238.696,395.541 237.019,395.852 236.275 C 396.163 235.531,396.615 232.812,396.856 230.233 C 397.098 227.654,397.459 225.235,397.658 224.857 C 397.857 224.479,398.020 223.311,398.020 222.263 C 398.020 221.214,398.243 220.134,398.515 219.861 C 399.236 219.141,399.236 176.899,398.515 176.178 C 398.233 175.896,398.020 174.696,398.020 173.386 C 398.020 172.123,397.880 171.089,397.709 171.089 C 397.539 171.089,397.186 168.864,396.925 166.145 C 396.665 163.426,396.190 160.574,395.869 159.807 C 395.549 159.040,395.166 157.344,395.018 156.038 C 394.870 154.732,394.615 153.663,394.450 153.663 C 394.286 153.663,394.028 152.507,393.876 151.093 C 393.725 149.680,393.437 148.422,393.236 148.298 C 393.036 148.174,392.871 147.648,392.871 147.129 C 392.871 146.610,392.719 146.091,392.533 145.977 C 392.348 145.862,391.965 144.420,391.683 142.772 C 391.401 141.124,390.959 139.648,390.701 139.492 C 390.442 139.336,389.999 138.050,389.716 136.634 C 389.432 135.218,389.002 133.881,388.759 133.662 C 388.516 133.443,388.248 132.998,388.163 132.672 C 388.079 132.346,387.792 131.188,387.527 130.099 C 387.261 129.010,386.662 127.409,386.195 126.541 C 385.728 125.672,385.347 124.559,385.347 124.065 C 385.347 123.572,385.176 123.168,384.968 123.168 C 384.760 123.168,384.473 122.545,384.330 121.782 C 384.187 121.020,383.912 120.396,383.718 120.396 C 383.525 120.396,383.366 120.040,383.366 119.604 C 383.366 119.168,383.227 118.812,383.057 118.812 C 382.886 118.812,382.510 118.007,382.219 117.024 C 381.929 116.041,381.451 115.101,381.157 114.937 C 380.862 114.772,380.571 114.017,380.509 113.259 C 380.397 111.896,379.800 110.891,379.101 110.891 C 378.903 110.891,378.507 109.917,378.221 108.727 C 377.936 107.536,377.551 106.655,377.366 106.770 C 377.181 106.884,377.030 106.700,377.030 106.360 C 377.030 106.020,376.851 105.743,376.634 105.743 C 376.416 105.743,376.238 105.539,376.238 105.291 C 376.238 104.690,374.536 101.224,374.158 101.056 C 373.995 100.983,373.861 100.572,373.861 100.142 C 373.861 99.711,373.702 99.458,373.508 99.578 C 373.313 99.698,373.053 99.393,372.929 98.900 C 372.805 98.407,372.351 97.625,371.919 97.161 C 371.487 96.698,370.865 95.676,370.537 94.892 C 370.210 94.107,369.773 93.465,369.568 93.465 C 369.363 93.465,368.919 92.776,368.582 91.933 C 368.244 91.090,367.690 90.293,367.351 90.163 C 367.011 90.033,366.733 89.680,366.733 89.379 C 366.733 89.078,366.198 88.094,365.545 87.192 C 364.891 86.289,364.356 85.391,364.356 85.194 C 364.356 84.998,364.089 84.735,363.762 84.609 C 363.436 84.484,363.168 84.148,363.168 83.862 C 363.168 83.577,362.812 83.086,362.376 82.772 C 361.941 82.458,361.584 82.005,361.584 81.766 C 361.584 81.527,360.960 80.602,360.198 79.711 C 359.436 78.821,358.812 77.961,358.812 77.801 C 358.812 77.640,358.445 77.134,357.996 76.675 C 357.548 76.217,356.551 75.040,355.782 74.059 C 353.171 70.732,351.488 68.728,350.594 67.882 C 350.104 67.418,349.703 66.856,349.703 66.634 C 349.703 66.412,349.242 65.928,348.679 65.558 C 348.115 65.189,347.748 64.794,347.862 64.679 C 347.977 64.565,347.235 63.751,346.213 62.871 C 345.192 61.991,344.229 60.940,344.072 60.536 C 343.916 60.132,343.543 59.802,343.245 59.802 C 342.946 59.802,342.498 59.356,342.250 58.812 C 342.002 58.267,341.524 57.822,341.187 57.822 C 340.850 57.822,340.405 57.376,340.198 56.832 C 339.991 56.287,339.676 55.842,339.498 55.842 C 339.005 55.842,333.861 50.768,333.861 50.281 C 333.861 50.046,333.706 49.951,333.515 50.068 C 333.325 50.186,332.729 49.885,332.192 49.399 C 331.654 48.913,330.645 48.018,329.950 47.410 C 329.236 46.787,328.806 46.111,328.962 45.858 C 329.140 45.570,329.018 45.495,328.620 45.647 C 327.898 45.925,325.391 43.866,325.843 43.368 C 326.006 43.188,325.949 43.149,325.718 43.280 C 325.487 43.412,324.608 42.905,323.765 42.156 C 322.922 41.406,322.113 40.792,321.966 40.792 C 321.820 40.792,321.221 40.348,320.635 39.805 C 320.049 39.263,319.139 38.710,318.611 38.578 C 318.084 38.445,317.545 37.999,317.414 37.585 C 317.282 37.172,316.741 36.725,316.211 36.592 C 315.681 36.459,315.248 36.209,315.248 36.038 C 315.248 35.866,314.312 35.131,313.168 34.404 C 312.025 33.677,310.746 32.769,310.326 32.387 C 309.907 32.005,309.194 31.577,308.742 31.435 C 308.290 31.294,307.417 30.758,306.801 30.243 C 306.186 29.728,305.456 29.307,305.180 29.307 C 304.904 29.307,304.160 28.857,303.527 28.307 C 302.894 27.756,301.975 27.202,301.485 27.076 C 300.995 26.949,300.594 26.719,300.594 26.564 C 300.594 26.410,299.391 25.672,297.921 24.924 C 296.450 24.176,294.912 23.261,294.501 22.891 C 294.090 22.521,293.199 22.100,292.521 21.957 C 291.842 21.814,290.931 21.376,290.495 20.985 C 290.059 20.594,288.946 20.050,288.020 19.777 C 287.094 19.504,286.337 19.142,286.337 18.973 C 286.337 18.804,285.722 18.443,284.972 18.172 C 284.221 17.900,283.714 17.505,283.845 17.293 C 283.978 17.077,283.878 17.034,283.616 17.196 C 283.135 17.493,280.792 16.647,280.792 16.176 C 280.792 16.030,280.079 15.791,279.208 15.644 C 278.337 15.496,277.624 15.233,277.624 15.059 C 277.624 14.884,277.000 14.625,276.238 14.482 C 275.475 14.339,274.851 14.095,274.851 13.940 C 274.851 13.590,273.067 12.804,271.485 12.457 C 269.949 12.119,268.119 11.358,268.119 11.056 C 268.119 10.926,266.880 10.586,265.366 10.301 C 263.852 10.015,262.526 9.554,262.420 9.277 C 262.313 9.000,260.879 8.546,259.232 8.269 C 257.585 7.993,256.238 7.623,256.238 7.448 C 256.238 7.272,255.892 7.129,255.469 7.129 C 255.046 7.129,254.600 6.967,254.478 6.770 C 254.356 6.572,253.321 6.285,252.178 6.131 C 251.034 5.978,249.921 5.714,249.703 5.545 C 249.485 5.376,248.327 5.108,247.129 4.950 C 245.931 4.793,244.772 4.531,244.554 4.369 C 243.925 3.901,240.827 3.233,237.910 2.935 C 236.433 2.784,235.131 2.508,235.015 2.320 C 234.899 2.133,234.189 1.980,233.437 1.980 C 232.684 1.980,231.759 1.807,231.381 1.595 C 229.062 0.294,191.281 -0.503,177.426 0.456 M311.287 117.772 C 316.424 120.000,320.337 124.210,321.633 128.906 C 322.134 130.720,322.297 130.587,318.778 131.240 C 317.163 131.540,314.777 132.082,313.477 132.445 C 310.293 133.333,309.241 133.170,308.858 131.730 C 307.043 124.889,294.257 126.646,294.257 133.737 C 294.257 134.154,294.067 134.686,293.834 134.919 C 293.320 135.433,293.546 142.498,294.145 144.617 C 296.584 153.258,307.172 153.145,309.330 144.455 C 309.587 143.421,309.987 142.574,310.219 142.574 C 310.896 142.574,315.407 143.858,315.842 144.175 C 316.059 144.333,316.861 144.587,317.624 144.739 C 319.372 145.088,321.683 145.823,322.105 146.166 C 323.180 147.038,320.253 153.372,317.334 156.493 C 310.863 163.411,294.099 163.703,286.421 157.032 C 276.772 148.648,276.765 129.390,286.408 120.996 C 291.622 116.458,304.429 114.798,311.287 117.772 M58.320 118.218 C 58.521 118.871,58.947 119.990,59.268 120.705 C 59.588 121.419,60.175 122.934,60.573 124.071 C 62.095 128.429,63.034 130.938,63.609 132.190 C 63.938 132.904,64.537 134.419,64.940 135.556 C 66.576 140.170,68.133 144.401,68.471 145.149 C 68.993 146.302,71.082 151.813,72.299 155.248 C 72.877 156.881,73.510 158.387,73.705 158.594 C 73.900 158.801,74.059 159.469,74.059 160.079 L 74.059 161.188 66.917 161.188 L 59.774 161.188 59.064 159.505 C 58.674 158.579,58.122 156.975,57.839 155.941 L 57.323 154.059 49.901 154.059 L 42.479 154.059 41.995 155.941 C 41.729 156.975,41.305 158.535,41.052 159.406 L 40.594 160.990 33.693 161.099 C 25.593 161.226,25.828 161.352,27.158 157.594 C 27.731 155.976,28.527 153.723,28.927 152.586 C 29.327 151.449,29.911 149.934,30.224 149.220 C 30.843 147.805,33.521 140.795,34.652 137.624 C 35.041 136.535,35.487 135.465,35.645 135.248 C 35.802 135.030,36.050 134.317,36.195 133.663 C 36.341 133.010,36.789 131.762,37.190 130.891 C 38.030 129.065,41.584 119.508,41.584 119.074 C 41.584 118.915,41.874 118.341,42.229 117.799 L 42.874 116.815 50.414 116.922 L 57.954 117.030 58.320 118.218 M92.277 133.267 L 92.475 149.505 102.772 149.703 L 113.069 149.901 113.180 155.217 C 113.264 159.204,113.165 160.613,112.784 160.854 C 112.505 161.031,104.569 161.179,95.149 161.182 L 78.020 161.188 78.020 139.001 L 78.020 116.813 85.050 116.922 L 92.079 117.030 92.277 133.267 M132.633 117.378 C 132.958 117.769,133.079 122.408,133.060 133.714 L 133.034 149.505 143.304 149.610 C 155.319 149.734,154.046 148.990,154.054 155.892 C 154.058 159.138,153.917 160.417,153.519 160.748 C 153.130 161.071,148.152 161.168,135.796 161.093 L 118.614 160.990 118.511 139.406 C 118.454 127.535,118.493 117.599,118.598 117.327 C 118.885 116.576,132.007 116.623,132.633 117.378 M173.663 139.010 L 173.663 160.990 166.733 160.990 L 159.802 160.990 159.699 139.406 C 159.642 127.535,159.683 117.595,159.789 117.317 C 159.938 116.930,161.567 116.838,166.823 116.921 L 173.663 117.030 173.663 139.010 M210.187 117.327 C 210.398 117.599,210.845 118.624,211.180 119.604 C 212.448 123.314,213.533 126.194,214.260 127.778 C 214.674 128.680,215.134 129.927,215.284 130.550 C 215.433 131.173,215.684 131.861,215.843 132.079 C 216.001 132.297,216.710 134.079,217.420 136.040 C 218.129 138.000,218.966 140.188,219.280 140.903 C 219.593 141.617,220.175 143.132,220.573 144.269 C 222.116 148.685,223.041 151.151,223.727 152.673 C 224.119 153.545,224.564 154.767,224.714 155.390 C 224.864 156.013,225.355 157.305,225.804 158.260 C 227.172 161.171,227.132 161.188,219.089 161.188 C 210.960 161.188,211.754 161.598,210.434 156.724 L 209.708 154.043 202.198 154.150 L 194.688 154.257 194.381 155.842 C 193.307 161.384,193.644 161.176,185.743 161.176 C 179.144 161.176,177.703 160.929,178.480 159.931 C 178.705 159.642,179.199 158.426,179.578 157.228 C 179.957 156.030,180.512 154.515,180.811 153.861 C 181.410 152.551,182.906 148.599,184.388 144.413 C 184.917 142.920,185.607 141.138,185.921 140.453 C 186.464 139.271,187.354 136.891,188.906 132.475 C 189.288 131.386,190.604 127.966,191.830 124.875 C 193.056 121.784,194.059 119.167,194.059 119.059 C 194.059 118.952,194.233 118.406,194.446 117.848 L 194.832 116.832 202.318 116.832 C 207.838 116.832,209.905 116.962,210.187 117.327 M243.334 117.072 C 243.678 117.204,243.960 117.539,243.960 117.816 C 243.960 118.092,244.197 118.515,244.486 118.755 C 244.775 118.995,247.136 122.326,249.733 126.157 C 252.330 129.988,254.812 133.621,255.248 134.231 C 255.683 134.840,256.752 136.387,257.624 137.669 L 259.208 140.000 259.406 128.515 L 259.604 117.030 266.040 116.921 L 272.475 116.812 272.475 139.010 L 272.475 161.207 265.842 161.099 L 259.208 160.990 257.717 158.812 C 256.897 157.614,255.253 155.208,254.063 153.465 C 252.873 151.723,250.734 148.604,249.311 146.535 C 247.887 144.465,246.056 141.795,245.242 140.601 L 243.762 138.430 243.564 149.710 L 243.366 160.990 236.832 160.990 L 230.297 160.990 230.194 139.406 C 230.138 127.535,230.177 117.599,230.281 117.327 C 230.481 116.805,242.049 116.579,243.334 117.072 M365.061 122.079 L 365.172 127.129 353.873 127.129 L 342.574 127.129 342.574 130.099 L 342.574 133.069 353.069 133.069 L 363.564 133.069 363.564 137.822 L 363.564 142.574 353.069 142.574 L 342.574 142.574 342.574 146.436 L 342.574 150.297 353.798 150.181 C 367.201 150.042,366.005 149.456,365.854 156.095 L 365.743 160.990 347.351 161.093 C 337.235 161.150,328.811 161.049,328.631 160.868 C 328.265 160.502,328.170 117.786,328.533 117.198 C 328.674 116.970,335.821 116.864,346.858 116.927 L 364.950 117.030 365.061 122.079 M201.577 132.512 C 201.314 133.777,200.919 135.266,200.698 135.822 C 199.919 137.786,199.696 138.439,199.059 140.629 C 198.103 143.918,197.937 143.762,202.403 143.762 C 206.010 143.762,206.371 143.696,206.195 143.069 C 206.088 142.688,205.877 141.752,205.726 140.990 C 205.576 140.228,205.325 139.426,205.168 139.208 C 204.911 138.852,204.527 137.613,203.081 132.475 C 202.389 130.019,202.093 130.026,201.577 132.512 M49.599 131.482 C 49.329 131.914,49.109 132.523,49.109 132.836 C 49.109 133.149,48.398 135.602,47.529 138.287 C 46.660 140.972,45.948 143.302,45.945 143.465 C 45.943 143.629,47.795 143.762,50.063 143.762 L 54.185 143.762 53.552 141.683 C 50.594 131.967,50.097 130.684,49.599 131.482 M110.537 177.186 C 125.644 178.332,130.798 181.564,134.599 192.277 C 137.153 199.474,137.155 237.110,134.603 245.941 C 133.708 249.037,132.434 251.496,130.643 253.585 C 128.956 255.552,124.663 258.612,123.585 258.616 C 123.247 258.618,122.525 258.848,121.980 259.129 C 118.538 260.902,109.481 261.481,81.980 261.686 C 60.578 261.846,57.921 261.771,43.960 260.613 C 27.951 259.285,23.231 252.468,22.147 229.109 C 20.669 197.258,23.717 184.896,34.257 179.999 C 38.841 177.869,44.019 177.165,60.000 176.496 C 68.335 176.147,103.096 176.622,110.537 177.186 M191.664 179.070 C 194.954 183.783,201.689 193.277,202.579 194.455 C 203.467 195.632,211.437 206.859,213.550 209.910 C 213.924 210.450,215.260 212.344,216.521 214.121 C 220.763 220.100,222.928 223.161,223.843 224.472 C 224.343 225.189,225.198 226.380,225.743 227.119 C 226.287 227.857,227.535 229.647,228.515 231.095 C 229.495 232.544,230.479 233.937,230.701 234.191 C 230.923 234.445,231.785 235.589,232.616 236.733 C 233.727 238.262,234.383 238.812,235.095 238.812 L 236.064 238.812 235.849 221.287 C 235.731 211.649,235.592 197.881,235.540 190.693 L 235.446 177.624 248.566 177.519 L 261.687 177.415 261.927 178.312 C 262.241 179.484,262.252 259.150,261.938 259.968 C 261.723 260.529,259.376 260.594,239.463 260.589 L 217.228 260.584 215.527 258.114 C 212.137 253.192,209.358 249.255,207.493 246.733 C 206.446 245.317,205.213 243.624,204.753 242.970 C 201.436 238.255,197.975 233.396,197.678 233.038 C 197.483 232.803,196.865 231.912,196.304 231.058 C 195.291 229.513,186.854 217.588,186.240 216.832 C 186.064 216.614,184.863 214.921,183.573 213.069 C 182.282 211.218,181.111 209.614,180.970 209.505 C 180.828 209.396,180.246 208.594,179.677 207.723 C 179.107 206.851,178.112 205.426,177.465 204.554 C 176.818 203.683,175.787 202.213,175.174 201.288 C 174.275 199.931,173.830 199.605,172.871 199.604 L 171.683 199.603 171.771 209.010 C 171.819 214.183,171.979 227.906,172.127 239.505 L 172.395 260.594 159.069 260.594 L 145.743 260.594 145.743 219.274 C 145.743 196.548,145.863 177.834,146.010 177.687 C 146.157 177.539,156.262 177.465,168.466 177.521 L 190.655 177.624 191.664 179.070 M365.352 178.317 C 365.472 178.807,365.520 183.307,365.458 188.317 L 365.347 197.426 331.782 197.527 L 298.218 197.628 298.218 203.171 L 298.218 208.713 329.901 208.713 L 361.584 208.713 361.584 218.218 L 361.584 227.723 329.901 227.723 L 298.218 227.723 298.218 233.859 L 298.218 239.996 331.980 240.097 L 365.743 240.198 365.743 250.297 L 365.743 260.396 319.307 260.497 L 272.871 260.597 272.871 219.012 L 272.871 177.426 319.002 177.426 L 365.133 177.426 365.352 178.317 M66.337 198.815 C 57.511 199.174,53.747 199.662,52.844 200.565 C 52.511 200.898,52.006 201.308,51.721 201.476 C 47.575 203.929,46.357 229.451,50.126 234.891 C 52.959 238.978,55.750 239.406,79.604 239.406 C 110.382 239.406,110.295 239.462,110.270 220.000 C 110.248 202.760,108.970 200.180,100.000 199.255 C 94.400 198.678,75.711 198.433,66.337 198.815 " stroke="none" fill="#13338c" fill-rule="evenodd"></path><path id="path2" d="M42.635 117.129 C 42.534 117.292,45.888 117.374,50.089 117.311 L 57.728 117.196 57.992 118.249 C 58.137 118.828,58.342 119.216,58.446 119.112 C 58.551 119.007,58.457 118.451,58.239 117.877 L 57.841 116.832 50.330 116.832 C 46.199 116.832,42.736 116.965,42.635 117.129 M84.950 117.124 L 91.881 117.246 91.881 133.474 C 91.881 142.400,92.015 149.703,92.178 149.703 C 92.342 149.703,92.386 142.352,92.277 133.367 L 92.079 117.030 85.049 117.016 L 78.019 117.001 84.950 117.124 M118.675 117.129 C 118.574 117.292,121.637 117.426,125.483 117.426 L 132.475 117.426 132.680 133.267 L 132.885 149.109 132.977 133.446 C 133.046 121.686,132.951 117.664,132.594 117.307 C 132.061 116.774,118.998 116.607,118.675 117.129 M159.868 117.119 C 159.764 117.288,162.780 117.373,166.572 117.309 L 173.465 117.192 173.465 139.010 L 173.465 160.827 166.553 160.711 C 162.752 160.647,159.780 160.732,159.950 160.901 C 160.119 161.070,163.274 161.159,166.960 161.099 L 173.663 160.990 173.663 139.010 L 173.663 117.030 166.861 116.921 C 163.119 116.862,159.973 116.951,159.868 117.119 M194.637 117.254 C 194.494 117.486,194.483 117.783,194.614 117.914 C 194.745 118.045,194.851 117.944,194.851 117.690 C 194.851 116.835,209.763 117.059,210.265 117.921 C 210.487 118.302,210.674 118.427,210.681 118.198 C 210.716 117.006,209.649 116.832,202.320 116.832 C 197.491 116.832,194.807 116.979,194.637 117.254 M230.281 117.327 C 230.177 117.599,230.138 127.535,230.194 139.406 L 230.297 160.990 236.603 161.100 C 240.072 161.160,243.049 161.071,243.218 160.901 C 243.388 160.732,240.595 160.647,237.011 160.712 L 230.495 160.829 230.495 139.038 L 230.495 117.247 236.931 117.128 L 243.366 117.009 236.918 116.920 C 232.058 116.853,230.424 116.954,230.281 117.327 M262.871 117.126 C 264.668 117.200,267.609 117.200,269.406 117.126 C 271.203 117.053,269.733 116.993,266.139 116.993 C 262.545 116.993,261.074 117.053,262.871 117.126 M328.266 117.525 C 327.783 118.141,327.794 118.162,328.367 117.715 C 328.871 117.321,332.936 117.235,347.042 117.319 C 356.959 117.378,364.991 117.292,364.889 117.129 C 364.443 116.407,328.841 116.792,328.266 117.525 M364.895 121.980 C 364.895 124.050,364.962 124.896,365.044 123.861 C 365.125 122.827,365.125 121.134,365.044 120.099 C 364.962 119.064,364.895 119.911,364.895 121.980 M317.607 122.277 C 318.343 123.203,319.016 123.960,319.103 123.960 C 319.383 123.960,317.686 121.732,316.965 121.153 C 316.582 120.846,316.871 121.351,317.607 122.277 M49.377 131.172 C 49.164 132.015,49.186 132.028,49.688 131.358 C 50.163 130.723,50.251 130.712,50.420 131.266 C 50.581 131.795,50.603 131.789,50.554 131.229 C 50.463 130.196,49.633 130.156,49.377 131.172 M311.287 132.673 C 310.491 132.928,310.452 132.993,311.089 133.002 C 311.525 133.008,312.238 132.860,312.673 132.673 C 313.682 132.240,312.641 132.240,311.287 132.673 M48.564 133.679 C 48.428 134.033,48.332 134.620,48.351 134.983 C 48.370 135.346,48.542 135.118,48.734 134.475 C 49.107 133.225,48.975 132.607,48.564 133.679 M203.810 135.248 C 203.952 135.901,204.224 136.703,204.415 137.030 C 204.638 137.410,204.671 137.196,204.506 136.436 C 204.365 135.782,204.093 134.980,203.902 134.653 C 203.679 134.273,203.646 134.487,203.810 135.248 M279.300 136.238 C 279.300 137.000,279.381 137.312,279.481 136.931 C 279.581 136.550,279.581 135.926,279.481 135.545 C 279.381 135.163,279.300 135.475,279.300 136.238 M65.392 137.624 C 65.399 137.842,65.748 138.733,66.167 139.604 C 66.586 140.475,66.818 140.743,66.682 140.198 C 66.403 139.077,65.371 137.018,65.392 137.624 M279.308 141.584 C 279.312 142.455,279.393 142.765,279.488 142.273 C 279.583 141.780,279.579 141.067,279.480 140.688 C 279.381 140.310,279.303 140.713,279.308 141.584 M245.905 141.716 C 246.119 142.115,246.605 142.694,246.985 143.003 C 247.413 143.350,247.317 143.074,246.734 142.277 C 245.694 140.856,245.304 140.592,245.905 141.716 M185.017 142.554 C 184.785 143.219,184.680 143.762,184.783 143.762 C 185.050 143.762,185.798 141.705,185.601 141.509 C 185.512 141.419,185.249 141.889,185.017 142.554 M206.137 142.673 L 206.352 143.762 202.417 143.762 C 200.124 143.762,198.398 143.593,198.281 143.356 C 198.170 143.133,198.125 143.178,198.181 143.455 C 198.300 144.050,205.851 144.407,206.413 143.845 C 206.607 143.650,206.576 143.085,206.340 142.542 C 205.931 141.604,205.927 141.607,206.137 142.673 M54.010 143.069 C 54.211 143.697,53.831 143.770,49.988 143.846 L 45.743 143.929 49.867 144.058 C 54.113 144.191,54.924 143.987,54.204 142.967 C 53.855 142.473,53.823 142.490,54.010 143.069 M251.054 149.240 C 251.267 149.640,251.753 150.219,252.133 150.528 C 252.561 150.875,252.465 150.598,251.882 149.802 C 250.842 148.381,250.452 148.117,251.054 149.240 M112.673 155.186 L 112.673 160.594 95.248 160.798 L 77.822 161.003 94.918 161.095 C 104.321 161.146,112.296 161.080,112.641 160.948 C 113.311 160.691,113.620 150.364,112.970 149.962 C 112.807 149.860,112.673 152.211,112.673 155.186 M29.351 151.331 C 29.107 152.031,28.977 152.673,29.061 152.758 C 29.146 152.842,29.415 152.339,29.659 151.639 C 29.903 150.939,30.033 150.297,29.949 150.213 C 29.864 150.128,29.595 150.631,29.351 151.331 M354.257 150.486 L 365.347 150.693 365.347 155.644 L 365.347 160.594 346.851 160.594 C 336.679 160.594,328.492 160.730,328.657 160.895 C 328.823 161.061,337.235 161.150,347.351 161.093 L 365.743 160.990 365.854 156.095 C 366.004 149.502,367.157 150.082,354.110 150.189 L 343.168 150.278 354.257 150.486 M153.656 155.644 L 153.465 160.594 135.978 160.594 C 126.360 160.594,118.574 160.728,118.675 160.891 C 119.046 161.491,153.124 161.243,153.628 160.637 C 153.933 160.269,154.046 158.523,153.966 155.389 L 153.847 150.693 153.656 155.644 M46.456 153.959 C 48.591 154.030,51.977 154.030,53.981 153.958 C 55.985 153.886,54.238 153.828,50.099 153.828 C 45.960 153.829,44.321 153.888,46.456 153.959 M194.714 153.960 C 194.612 154.124,196.785 154.211,199.542 154.154 C 208.791 153.964,209.758 153.819,202.301 153.741 C 198.229 153.698,194.815 153.797,194.714 153.960 M285.347 156.040 C 286.197 156.911,286.983 157.624,287.091 157.624 C 287.200 157.624,286.593 156.911,285.743 156.040 C 284.892 155.168,284.107 154.455,283.998 154.455 C 283.889 154.455,284.496 155.168,285.347 156.040 M255.410 155.577 C 255.624 155.976,256.109 156.555,256.490 156.864 C 256.918 157.212,256.822 156.935,256.239 156.139 C 255.199 154.718,254.809 154.454,255.410 155.577 M316.832 156.634 C 315.870 157.614,315.172 158.416,315.281 158.416 C 315.390 158.416,316.266 157.614,317.228 156.634 C 318.190 155.653,318.888 154.851,318.779 154.851 C 318.670 154.851,317.794 155.653,316.832 156.634 M226.034 159.763 L 226.227 160.774 219.054 160.896 L 211.881 161.018 219.103 161.004 C 226.571 160.990,227.765 160.676,226.225 159.136 C 225.977 158.888,225.909 159.110,226.034 159.763 M178.388 160.044 C 177.837 160.937,179.355 161.176,185.611 161.182 C 192.429 161.189,193.267 161.068,193.267 160.080 C 193.267 159.535,193.202 159.542,192.770 160.132 C 192.130 161.008,178.736 160.976,178.911 160.099 C 179.034 159.485,178.752 159.456,178.388 160.044 M258.774 160.297 C 259.507 161.162,259.719 161.186,266.101 161.100 L 272.673 161.011 266.159 160.891 C 260.686 160.791,259.514 160.663,258.832 160.089 C 258.023 159.408,258.022 159.409,258.774 160.297 M26.240 160.396 C 26.418 161.049,39.821 161.525,40.447 160.901 C 40.616 160.732,37.615 160.647,33.778 160.711 C 28.409 160.801,26.719 160.710,26.440 160.315 C 26.161 159.919,26.115 159.938,26.240 160.396 M59.665 160.891 C 59.766 161.054,63.046 161.188,66.954 161.188 C 70.862 161.188,74.059 161.054,74.059 160.891 C 74.059 160.728,70.779 160.594,66.770 160.594 C 62.762 160.594,59.564 160.728,59.665 160.891 M294.653 161.188 C 295.198 161.363,296.000 161.505,296.436 161.505 C 297.063 161.505,297.022 161.439,296.238 161.188 C 295.693 161.014,294.891 160.871,294.455 160.871 C 293.828 160.871,293.869 160.937,294.653 161.188 M58.614 176.615 C 55.891 176.734,62.842 176.773,74.059 176.701 C 85.277 176.629,94.634 176.509,94.851 176.435 C 95.483 176.220,64.075 176.376,58.614 176.615 M97.738 176.927 C 99.108 177.005,101.247 177.004,102.491 176.926 C 103.735 176.848,102.614 176.784,100.000 176.785 C 97.386 176.786,96.368 176.850,97.738 176.927 M48.020 177.303 C 48.401 177.402,49.025 177.402,49.406 177.303 C 49.787 177.203,49.475 177.122,48.713 177.122 C 47.950 177.122,47.639 177.203,48.020 177.303 M42.475 177.699 C 42.856 177.798,43.480 177.798,43.861 177.699 C 44.243 177.599,43.931 177.518,43.168 177.518 C 42.406 177.518,42.094 177.599,42.475 177.699 M146.002 177.723 C 145.901 177.886,155.808 177.972,168.019 177.914 C 188.755 177.816,190.275 177.855,191.051 178.508 L 191.881 179.208 191.127 178.317 L 190.372 177.426 168.279 177.426 C 156.127 177.426,146.103 177.559,146.002 177.723 M235.427 177.924 C 235.322 178.198,235.286 184.124,235.347 191.093 L 235.457 203.762 235.550 190.797 L 235.644 177.832 248.812 177.723 L 261.980 177.613 248.799 177.519 C 238.503 177.446,235.577 177.535,235.427 177.924 M295.712 177.723 C 308.383 177.781,329.235 177.781,342.049 177.723 C 354.862 177.665,344.495 177.617,319.010 177.617 C 293.525 177.617,283.041 177.665,295.712 177.723 M365.148 187.803 C 365.039 193.183,365.087 197.448,365.255 197.280 C 365.422 197.113,365.511 192.710,365.452 187.498 L 365.345 178.020 365.148 187.803 M261.973 219.208 C 261.973 241.644,262.021 250.764,262.079 239.475 C 262.138 228.186,262.138 209.829,262.079 198.683 C 262.021 187.536,261.973 196.772,261.973 219.208 M128.713 182.698 C 128.713 182.766,129.292 183.346,130.000 183.985 L 131.287 185.149 130.124 183.861 C 129.040 182.662,128.713 182.392,128.713 182.698 M28.097 184.455 L 26.733 185.941 28.218 184.576 C 29.600 183.305,29.885 182.970,29.583 182.970 C 29.516 182.970,28.848 183.639,28.097 184.455 M131.434 185.941 C 131.648 186.376,132.113 187.089,132.468 187.525 L 133.113 188.317 132.724 187.525 C 132.510 187.089,132.045 186.376,131.690 185.941 L 131.045 185.149 131.434 185.941 M134.513 193.267 C 134.826 194.975,135.051 195.298,135.043 194.026 C 135.040 193.500,134.862 192.802,134.648 192.475 C 134.374 192.057,134.334 192.292,134.513 193.267 M297.978 202.970 C 297.979 206.020,298.041 207.215,298.116 205.626 C 298.192 204.037,298.191 201.542,298.115 200.082 C 298.039 198.621,297.977 199.921,297.978 202.970 M22.666 199.604 C 22.666 200.366,22.748 200.678,22.847 200.297 C 22.947 199.916,22.947 199.292,22.847 198.911 C 22.748 198.530,22.666 198.842,22.666 199.604 M67.426 198.709 C 68.678 198.787,70.728 198.787,71.980 198.709 C 73.233 198.630,72.208 198.566,69.703 198.566 C 67.198 198.566,66.173 198.630,67.426 198.709 M87.624 198.709 C 88.876 198.787,90.926 198.787,92.178 198.709 C 93.431 198.630,92.406 198.566,89.901 198.566 C 87.396 198.566,86.371 198.630,87.624 198.709 M58.713 199.096 C 59.312 199.186,60.292 199.186,60.891 199.096 C 61.490 199.005,61.000 198.931,59.802 198.931 C 58.604 198.931,58.114 199.005,58.713 199.096 M98.718 199.096 C 99.320 199.187,100.211 199.185,100.699 199.091 C 101.186 198.997,100.693 198.922,99.604 198.925 C 98.515 198.928,98.116 199.005,98.718 199.096 M171.980 199.481 C 172.361 199.581,172.985 199.581,173.366 199.481 C 173.748 199.381,173.436 199.300,172.673 199.300 C 171.911 199.300,171.599 199.381,171.980 199.481 M171.652 209.505 C 171.652 213.970,171.710 215.797,171.781 213.564 C 171.851 211.332,171.851 207.678,171.781 205.446 C 171.710 203.213,171.652 205.040,171.652 209.505 M135.968 204.356 C 135.968 205.772,136.040 206.351,136.128 205.644 C 136.216 204.936,136.216 203.777,136.128 203.069 C 136.040 202.361,135.968 202.941,135.968 204.356 M211.450 207.458 C 211.663 207.857,212.149 208.437,212.529 208.745 C 212.957 209.093,212.862 208.816,212.278 208.020 C 211.238 206.599,210.848 206.335,211.450 207.458 M179.762 207.723 C 180.430 209.015,180.978 209.731,180.975 209.307 C 180.974 209.089,180.608 208.465,180.163 207.921 C 179.625 207.263,179.490 207.197,179.762 207.723 M48.417 209.307 C 48.421 210.178,48.502 210.488,48.597 209.995 C 48.692 209.503,48.688 208.790,48.589 208.411 C 48.490 208.033,48.412 208.436,48.417 209.307 M313.960 209.010 C 322.728 209.069,337.074 209.069,345.842 209.010 C 354.609 208.950,347.436 208.902,329.901 208.902 C 312.366 208.902,305.193 208.950,313.960 209.010 M110.226 212.277 C 110.226 213.693,110.298 214.272,110.386 213.564 C 110.473 212.856,110.473 211.698,110.386 210.990 C 110.298 210.282,110.226 210.861,110.226 212.277 M136.408 219.010 C 136.408 224.129,136.464 226.223,136.533 223.663 C 136.602 221.104,136.602 216.916,136.533 214.356 C 136.464 211.797,136.408 213.891,136.408 219.010 M214.256 211.386 C 214.774 212.094,215.260 212.673,215.336 212.673 C 215.637 212.673,214.655 211.188,214.005 210.660 C 213.577 210.313,213.673 210.590,214.256 211.386 M21.942 218.812 C 21.943 222.297,22.004 223.670,22.077 221.862 C 22.151 220.055,22.150 217.204,22.076 215.526 C 22.002 213.848,21.942 215.327,21.942 218.812 M171.655 226.931 C 171.655 232.050,171.712 234.144,171.781 231.584 C 171.850 229.025,171.850 224.837,171.781 222.277 C 171.712 219.718,171.655 221.812,171.655 226.931 M110.212 228.317 C 110.215 229.406,110.292 229.804,110.383 229.202 C 110.474 228.600,110.472 227.709,110.378 227.222 C 110.284 226.735,110.209 227.228,110.212 228.317 M225.741 227.624 C 226.260 228.332,226.745 228.911,226.821 228.911 C 227.122 228.911,226.140 227.426,225.490 226.898 C 225.063 226.551,225.158 226.827,225.741 227.624 M194.455 228.515 C 194.921 229.168,195.391 229.703,195.499 229.703 C 195.608 229.703,195.317 229.168,194.851 228.515 C 194.386 227.861,193.916 227.327,193.807 227.327 C 193.699 227.327,193.990 227.861,194.455 228.515 M313.960 227.624 C 322.728 227.683,337.074 227.683,345.842 227.624 C 354.609 227.564,347.436 227.516,329.901 227.516 C 312.366 227.516,305.193 227.564,313.960 227.624 M297.979 233.663 C 297.979 236.822,298.041 238.114,298.116 236.535 C 298.191 234.955,298.191 232.371,298.116 230.792 C 298.041 229.213,297.979 230.505,297.979 233.663 M48.409 230.891 C 48.409 231.653,48.490 231.965,48.590 231.584 C 48.689 231.203,48.689 230.579,48.590 230.198 C 48.490 229.817,48.409 230.129,48.409 230.891 M135.968 234.059 C 135.968 235.475,136.040 236.054,136.128 235.347 C 136.216 234.639,136.216 233.480,136.128 232.772 C 136.040 232.064,135.968 232.644,135.968 234.059 M50.297 235.644 C 50.762 236.297,51.232 236.832,51.341 236.832 C 51.450 236.832,51.158 236.297,50.693 235.644 C 50.228 234.990,49.758 234.455,49.649 234.455 C 49.540 234.455,49.832 234.990,50.297 235.644 M106.931 236.495 C 106.168 237.164,105.903 237.529,106.341 237.308 C 107.064 236.942,108.858 235.225,108.477 235.264 C 108.389 235.272,107.693 235.827,106.931 236.495 M172.052 245.545 C 172.052 250.663,172.108 252.757,172.177 250.198 C 172.246 247.639,172.246 243.450,172.177 240.891 C 172.108 238.332,172.052 240.426,172.052 245.545 M232.966 237.624 C 233.670 238.610,234.285 239.028,235.096 239.073 C 236.070 239.126,236.092 239.108,235.248 238.949 C 234.703 238.846,233.744 238.194,233.117 237.500 L 231.977 236.238 232.966 237.624 M22.647 238.218 C 22.632 238.871,22.767 240.119,22.948 240.990 C 23.379 243.075,23.416 241.202,22.991 238.812 C 22.753 237.475,22.667 237.327,22.647 238.218 M57.129 239.085 C 57.510 239.184,58.134 239.184,58.515 239.085 C 58.896 238.985,58.584 238.904,57.822 238.904 C 57.059 238.904,56.748 238.985,57.129 239.085 M62.079 239.487 C 62.569 239.582,63.371 239.582,63.861 239.487 C 64.351 239.393,63.950 239.316,62.970 239.316 C 61.990 239.316,61.589 239.393,62.079 239.487 M95.747 239.488 C 96.240 239.583,96.953 239.579,97.331 239.480 C 97.710 239.381,97.307 239.303,96.436 239.308 C 95.564 239.312,95.255 239.393,95.747 239.488 M331.894 240.296 L 365.571 240.400 365.459 250.478 C 365.397 256.021,365.483 260.418,365.651 260.251 C 365.818 260.083,365.907 255.503,365.849 250.072 L 365.743 240.198 331.980 240.195 L 298.218 240.191 331.894 240.296 M27.327 253.193 C 27.327 253.261,27.906 253.841,28.614 254.480 L 29.901 255.644 28.738 254.356 C 27.654 253.157,27.327 252.887,27.327 253.193 M129.288 254.752 L 127.723 256.436 129.406 254.870 C 130.332 254.009,131.089 253.252,131.089 253.187 C 131.089 252.887,130.744 253.187,129.288 254.752 M124.752 257.822 C 123.990 258.239,123.509 258.588,123.683 258.597 C 124.103 258.619,126.337 257.458,126.337 257.218 C 126.337 256.958,126.313 256.967,124.752 257.822 M117.030 260.198 C 115.952 260.472,115.933 260.502,116.832 260.519 C 117.376 260.530,118.178 260.385,118.614 260.198 C 119.590 259.778,118.679 259.778,117.030 260.198 M52.970 261.270 C 53.460 261.364,54.262 261.364,54.752 261.270 C 55.243 261.175,54.842 261.098,53.861 261.098 C 52.881 261.098,52.480 261.175,52.970 261.270 M96.040 261.386 L 88.911 261.612 95.644 261.662 C 99.347 261.690,103.267 261.574,104.356 261.404 C 106.695 261.040,106.950 261.041,96.040 261.386 M59.089 261.681 C 60.984 261.753,64.192 261.754,66.218 261.681 C 68.243 261.609,66.693 261.550,62.772 261.550 C 58.851 261.549,57.194 261.608,59.089 261.681 " stroke="none" fill="#6470a8" fill-rule="evenodd"></path><path id="path3" d="M42.640 117.492 C 42.495 117.637,42.379 117.949,42.382 118.185 C 42.386 118.446,42.509 118.424,42.697 118.128 C 42.919 117.779,45.123 117.609,50.513 117.525 L 58.020 117.407 50.462 117.317 C 46.305 117.268,42.785 117.347,42.640 117.492 M84.649 117.519 L 91.476 117.642 91.580 133.772 L 91.683 149.901 102.079 149.911 L 112.476 149.921 102.183 149.805 L 91.890 149.690 91.787 133.558 L 91.683 117.426 84.752 117.411 L 77.822 117.396 84.649 117.519 M118.598 117.723 C 118.493 117.995,118.454 127.752,118.511 139.406 L 118.614 160.594 135.644 160.600 L 152.673 160.607 135.743 160.497 L 118.812 160.388 118.812 139.015 L 118.812 117.642 125.644 117.524 L 132.475 117.406 125.631 117.317 C 120.454 117.249,118.741 117.348,118.598 117.723 M163.267 117.523 C 165.173 117.595,168.292 117.595,170.198 117.523 C 172.104 117.450,170.545 117.391,166.733 117.391 C 162.921 117.391,161.361 117.450,163.267 117.523 M202.160 117.520 C 207.520 117.607,209.766 117.781,210.012 118.128 C 210.262 118.480,210.313 118.450,210.195 118.020 C 210.059 117.518,208.835 117.424,202.344 117.412 L 194.653 117.398 202.160 117.520 M233.564 117.522 C 235.361 117.596,238.302 117.596,240.099 117.522 C 241.896 117.449,240.426 117.389,236.832 117.389 C 233.238 117.389,231.767 117.449,233.564 117.522 M259.585 117.728 C 259.480 118.003,259.444 123.305,259.505 129.510 L 259.617 140.792 259.709 129.218 L 259.802 117.643 266.238 117.524 L 272.673 117.405 266.225 117.316 C 261.331 117.249,259.731 117.348,259.585 117.728 M346.423 117.523 L 364.331 117.632 364.463 122.183 L 364.594 126.734 364.574 122.080 L 364.554 117.426 346.535 117.420 L 328.515 117.413 346.423 117.523 M342.319 130.099 C 342.318 132.059,342.385 132.911,342.468 131.992 C 342.551 131.073,342.552 129.469,342.470 128.428 C 342.388 127.387,342.320 128.139,342.319 130.099 M201.228 131.723 C 201.000 132.548,200.885 133.294,200.972 133.381 C 201.059 133.468,201.317 132.865,201.545 132.040 C 201.772 131.215,201.887 130.468,201.800 130.381 C 201.713 130.294,201.456 130.898,201.228 131.723 M317.228 131.107 C 316.794 131.401,316.954 131.438,317.822 131.243 C 319.278 130.918,319.594 130.691,318.581 130.699 C 318.163 130.702,317.554 130.886,317.228 131.107 M311.683 132.295 C 311.249 132.589,311.410 132.626,312.277 132.432 C 313.733 132.106,314.050 131.879,313.036 131.887 C 312.619 131.891,312.010 132.074,311.683 132.295 M346.535 133.346 C 354.855 133.628,363.078 133.638,362.910 133.366 C 362.808 133.203,358.325 133.106,352.947 133.151 C 347.569 133.196,344.683 133.283,346.535 133.346 M363.166 138.101 C 363.058 140.323,363.111 142.001,363.283 141.828 C 363.455 141.655,363.543 139.836,363.478 137.786 L 363.361 134.059 363.166 138.101 M47.564 136.079 C 47.337 136.904,47.221 137.651,47.309 137.738 C 47.396 137.825,47.653 137.221,47.881 136.396 C 48.109 135.571,48.224 134.825,48.137 134.738 C 48.050 134.650,47.792 135.254,47.564 136.079 M279.696 136.238 C 279.696 137.000,279.777 137.312,279.877 136.931 C 279.977 136.550,279.977 135.926,279.877 135.545 C 279.777 135.163,279.696 135.475,279.696 136.238 M243.261 149.000 L 243.168 160.376 236.733 160.496 L 230.297 160.615 236.745 160.704 C 241.641 160.771,243.239 160.672,243.385 160.292 C 243.491 160.016,243.527 154.804,243.465 148.708 L 243.353 137.624 243.261 149.000 M293.161 139.010 C 293.161 139.772,293.243 140.084,293.342 139.703 C 293.442 139.322,293.442 138.698,293.342 138.317 C 293.243 137.936,293.161 138.248,293.161 139.010 M66.366 140.990 C 66.511 141.535,66.796 142.248,66.998 142.574 C 67.253 142.987,67.284 142.866,67.100 142.178 C 66.954 141.634,66.670 140.921,66.468 140.594 C 66.213 140.181,66.182 140.302,66.366 140.990 M279.704 141.584 C 279.708 142.455,279.789 142.765,279.884 142.273 C 279.979 141.780,279.975 141.067,279.876 140.688 C 279.777 140.310,279.699 140.713,279.704 141.584 M309.851 143.551 C 309.729 143.871,309.720 144.361,309.832 144.640 C 309.945 144.920,310.051 144.761,310.068 144.286 C 310.085 143.812,310.411 143.343,310.792 143.243 C 311.442 143.074,311.441 143.059,310.780 143.016 C 310.392 142.991,309.974 143.232,309.851 143.551 M342.325 146.931 C 342.325 149.218,342.390 150.153,342.470 149.010 C 342.550 147.866,342.550 145.995,342.470 144.851 C 342.390 143.708,342.325 144.644,342.325 146.931 M220.018 144.653 C 220.166 145.144,220.450 145.719,220.649 145.932 C 220.849 146.144,220.811 145.743,220.566 145.040 C 220.065 143.602,219.601 143.275,220.018 144.653 M68.346 146.139 C 68.491 146.683,68.776 147.396,68.978 147.723 C 69.233 148.136,69.264 148.015,69.080 147.327 C 68.934 146.782,68.650 146.069,68.448 145.743 C 68.193 145.330,68.162 145.451,68.346 146.139 M250.693 148.119 C 251.158 148.772,251.628 149.307,251.737 149.307 C 251.846 149.307,251.554 148.772,251.089 148.119 C 250.624 147.465,250.154 146.931,250.045 146.931 C 249.936 146.931,250.228 147.465,250.693 148.119 M221.453 148.535 C 221.684 149.200,221.947 149.670,222.037 149.580 C 222.233 149.384,221.486 147.327,221.219 147.327 C 221.116 147.327,221.221 147.870,221.453 148.535 M132.536 149.802 C 132.637 149.965,137.239 150.099,142.763 150.099 C 149.226 150.099,152.877 150.244,153.007 150.505 C 153.117 150.728,153.162 150.684,153.106 150.406 C 153.028 150.018,150.604 149.855,142.678 149.703 C 136.999 149.594,132.435 149.639,132.536 149.802 M112.560 155.342 L 112.475 160.388 95.149 160.495 L 77.822 160.603 95.161 160.697 C 109.146 160.774,112.539 160.692,112.699 160.274 C 112.808 159.989,112.841 157.628,112.772 155.026 L 112.646 150.297 112.560 155.342 M253.034 151.617 C 253.247 152.016,253.733 152.595,254.113 152.904 C 254.541 153.251,254.446 152.975,253.863 152.178 C 252.822 150.757,252.432 150.493,253.034 151.617 M365.073 155.658 L 365.195 160.388 347.053 160.497 L 328.911 160.606 347.129 160.600 L 365.347 160.594 365.459 156.073 C 365.521 153.586,365.432 151.411,365.261 151.240 C 365.090 151.068,365.006 153.056,365.073 155.658 M316.832 156.238 C 315.870 157.218,315.172 158.020,315.281 158.020 C 315.390 158.020,316.266 157.218,317.228 156.238 C 318.190 155.257,318.888 154.455,318.779 154.455 C 318.670 154.455,317.794 155.257,316.832 156.238 M59.507 160.000 C 59.685 160.653,73.088 161.129,73.714 160.505 C 73.883 160.336,70.882 160.251,67.045 160.315 C 61.676 160.405,59.986 160.314,59.707 159.919 C 59.428 159.523,59.383 159.542,59.507 160.000 M185.743 160.396 L 178.812 160.622 185.620 160.707 C 189.826 160.760,192.522 160.641,192.673 160.396 C 192.808 160.178,192.863 160.038,192.796 160.085 C 192.728 160.131,189.554 160.271,185.743 160.396 M212.227 160.505 C 212.396 160.673,215.640 160.762,219.435 160.702 L 226.337 160.592 219.128 160.395 C 215.163 160.287,212.057 160.336,212.227 160.505 M259.356 160.505 C 259.525 160.674,262.591 160.763,266.169 160.702 L 272.673 160.592 265.860 160.395 C 262.113 160.287,259.186 160.336,259.356 160.505 M29.802 160.691 C 31.708 160.764,34.827 160.764,36.733 160.691 C 38.639 160.618,37.079 160.559,33.267 160.559 C 29.455 160.559,27.896 160.618,29.802 160.691 M163.267 160.691 C 165.173 160.764,168.292 160.764,170.198 160.691 C 172.104 160.618,170.545 160.559,166.733 160.559 C 162.921 160.559,161.361 160.618,163.267 160.691 M299.703 161.481 C 301.064 161.559,303.292 161.559,304.653 161.481 C 306.015 161.404,304.901 161.341,302.178 161.341 C 299.455 161.341,298.342 161.404,299.703 161.481 M71.558 176.930 C 75.737 176.994,82.687 176.994,87.003 176.930 C 91.320 176.866,87.901 176.814,79.406 176.814 C 70.911 176.814,67.379 176.866,71.558 176.930 M50.990 177.309 C 51.480 177.404,52.282 177.404,52.772 177.309 C 53.262 177.215,52.861 177.138,51.881 177.138 C 50.901 177.138,50.500 177.215,50.990 177.309 M105.644 177.309 C 106.134 177.404,106.936 177.404,107.426 177.309 C 107.916 177.215,107.515 177.138,106.535 177.138 C 105.554 177.138,105.153 177.215,105.644 177.309 M45.833 177.712 C 46.536 177.799,47.783 177.801,48.605 177.715 C 49.427 177.629,48.851 177.557,47.327 177.556 C 45.802 177.554,45.130 177.624,45.833 177.712 M109.802 177.714 C 110.619 177.800,111.955 177.800,112.772 177.714 C 113.589 177.629,112.921 177.559,111.287 177.559 C 109.653 177.559,108.985 177.629,109.802 177.714 M168.478 178.119 C 185.057 178.199,190.374 178.341,190.855 178.716 C 191.413 179.151,191.423 179.128,190.942 178.515 C 190.434 177.868,188.954 177.828,168.565 177.917 L 146.733 178.013 168.478 178.119 M235.730 183.064 L 235.816 188.317 235.939 183.267 L 236.063 178.218 248.725 178.218 L 261.386 178.218 261.386 219.218 L 261.386 260.217 239.236 260.109 C 227.053 260.049,217.327 260.135,217.622 260.300 C 217.918 260.466,227.930 260.555,239.872 260.498 L 261.584 260.396 261.584 219.208 L 261.584 178.020 248.614 177.915 L 235.644 177.811 235.730 183.064 M273.054 178.317 C 272.950 178.589,272.911 197.168,272.967 219.604 L 273.069 260.396 318.812 260.399 L 364.554 260.401 318.907 260.298 L 273.260 260.195 273.363 219.008 C 273.419 196.356,273.415 177.822,273.354 177.822 C 273.293 177.822,273.158 178.045,273.054 178.317 M319.406 178.118 L 364.752 178.221 364.752 187.722 L 364.752 197.223 331.386 197.328 L 298.020 197.433 331.485 197.429 L 364.950 197.426 364.950 187.723 L 364.950 178.020 319.505 178.017 L 274.059 178.015 319.406 178.118 M38.614 178.614 C 37.605 179.048,38.646 179.048,40.000 178.614 C 40.796 178.359,40.835 178.294,40.198 178.285 C 39.762 178.279,39.050 178.427,38.614 178.614 M192.836 181.716 C 193.049 182.115,193.535 182.694,193.915 183.003 C 194.343 183.350,194.248 183.074,193.665 182.277 C 192.624 180.856,192.234 180.592,192.836 181.716 M29.480 183.465 L 28.317 184.752 29.604 183.589 C 30.312 182.950,30.891 182.370,30.891 182.302 C 30.891 181.996,30.564 182.266,29.480 183.465 M128.317 182.698 C 128.317 182.766,128.896 183.346,129.604 183.985 L 130.891 185.149 129.728 183.861 C 128.644 182.662,128.317 182.392,128.317 182.698 M131.841 187.129 C 132.509 188.421,133.057 189.137,133.054 188.713 C 133.053 188.495,132.687 187.871,132.242 187.327 C 131.704 186.669,131.569 186.603,131.841 187.129 M133.917 192.079 C 133.917 192.406,134.070 193.030,134.257 193.465 C 134.472 193.965,134.598 194.038,134.598 193.663 C 134.598 193.337,134.445 192.713,134.257 192.277 C 134.043 191.778,133.917 191.705,133.917 192.079 M134.922 197.030 C 135.048 198.119,135.217 199.084,135.298 199.175 C 135.577 199.487,135.366 197.029,135.030 196.040 C 134.803 195.372,134.768 195.694,134.922 197.030 M204.752 198.416 C 205.218 199.069,205.688 199.604,205.797 199.604 C 205.905 199.604,205.614 199.069,205.149 198.416 C 204.683 197.762,204.213 197.228,204.104 197.228 C 203.996 197.228,204.287 197.762,204.752 198.416 M61.782 198.432 C 59.713 198.574,61.584 198.608,65.941 198.506 C 70.297 198.405,73.936 198.254,74.026 198.171 C 74.263 197.955,66.226 198.126,61.782 198.432 M85.578 198.167 C 85.668 198.248,89.307 198.405,93.663 198.515 C 98.893 198.648,100.239 198.613,97.624 198.414 C 93.369 198.090,85.306 197.925,85.578 198.167 M171.226 199.423 C 171.097 199.759,171.102 200.145,171.238 200.281 C 171.374 200.417,171.485 200.243,171.485 199.896 C 171.485 199.548,171.886 199.186,172.376 199.091 L 173.267 198.920 172.364 198.866 C 171.867 198.836,171.355 199.087,171.226 199.423 M175.012 200.594 C 175.238 201.030,175.796 201.832,176.253 202.376 C 176.819 203.052,176.952 203.115,176.672 202.574 C 176.445 202.139,175.887 201.337,175.430 200.792 C 174.864 200.116,174.731 200.054,175.012 200.594 M22.715 204.158 C 22.714 206.119,22.781 206.971,22.864 206.052 C 22.947 205.132,22.948 203.528,22.866 202.487 C 22.784 201.446,22.716 202.198,22.715 204.158 M109.731 206.370 C 109.746 206.896,109.920 207.683,110.118 208.119 C 110.368 208.671,110.403 208.431,110.235 207.327 C 109.955 205.488,109.691 204.986,109.731 206.370 M22.308 210.495 C 22.310 212.020,22.382 212.595,22.467 211.773 C 22.553 210.952,22.552 209.704,22.464 209.001 C 22.377 208.298,22.306 208.970,22.308 210.495 M298.081 209.208 C 298.182 209.371,312.429 209.505,329.741 209.505 L 361.217 209.505 361.104 218.397 C 361.041 223.287,361.127 227.151,361.295 226.983 C 361.463 226.815,361.552 222.769,361.493 217.992 L 361.386 209.307 329.642 209.109 C 312.182 209.000,297.980 209.045,298.081 209.208 M136.012 219.010 C 136.012 224.129,136.068 226.223,136.137 223.663 C 136.206 221.104,136.206 216.916,136.137 214.356 C 136.068 211.797,136.012 213.891,136.012 219.010 M47.694 220.198 C 47.694 225.099,47.751 227.104,47.820 224.653 C 47.890 222.203,47.890 218.193,47.820 215.743 C 47.751 213.292,47.694 215.297,47.694 220.198 M110.603 213.069 C 110.603 214.050,110.680 214.450,110.775 213.960 C 110.869 213.470,110.869 212.668,110.775 212.178 C 110.680 211.688,110.603 212.089,110.603 213.069 M236.211 229.505 C 236.211 234.950,236.267 237.233,236.335 234.578 C 236.404 231.922,236.404 227.466,236.336 224.677 C 236.268 221.887,236.212 224.059,236.211 229.505 M189.703 221.386 C 190.168 222.040,190.638 222.574,190.747 222.574 C 190.856 222.574,190.564 222.040,190.099 221.386 C 189.634 220.733,189.164 220.198,189.055 220.198 C 188.946 220.198,189.238 220.733,189.703 221.386 M22.311 226.931 C 22.311 228.564,22.381 229.233,22.467 228.416 C 22.552 227.599,22.552 226.262,22.467 225.446 C 22.381 224.629,22.311 225.297,22.311 226.931 M228.154 231.386 C 228.862 232.421,229.506 233.267,229.586 233.267 C 229.855 233.267,228.957 231.889,227.909 230.693 C 227.121 229.794,227.180 229.962,228.154 231.386 M22.715 233.465 C 22.714 235.426,22.781 236.278,22.864 235.358 C 22.947 234.439,22.948 232.835,22.866 231.794 C 22.784 230.753,22.716 231.505,22.715 233.465 M135.537 235.644 C 135.537 236.406,135.619 236.718,135.719 236.337 C 135.818 235.955,135.818 235.332,135.719 234.950 C 135.619 234.569,135.537 234.881,135.537 235.644 M107.129 236.701 C 106.257 237.482,105.901 237.936,106.337 237.711 C 107.071 237.331,109.258 235.227,108.881 235.264 C 108.788 235.273,108.000 235.920,107.129 236.701 M171.655 245.743 C 171.655 250.752,171.712 252.747,171.781 250.176 C 171.850 247.604,171.850 243.505,171.781 241.067 C 171.711 238.629,171.655 240.733,171.655 245.743 M60.033 239.680 C 60.886 239.831,69.782 239.930,79.802 239.900 C 89.822 239.869,96.861 239.793,95.446 239.730 C 89.628 239.471,58.601 239.427,60.033 239.680 M314.980 240.693 C 324.090 240.752,338.883 240.752,347.851 240.693 C 356.820 240.634,349.366 240.585,331.287 240.585 C 313.208 240.585,305.870 240.634,314.980 240.693 M365.148 250.415 L 365.345 260.396 365.452 250.720 C 365.511 245.398,365.422 240.907,365.255 240.739 C 365.087 240.572,365.039 244.926,365.148 250.415 M134.108 244.966 C 133.973 245.320,133.877 245.907,133.895 246.270 C 133.914 246.633,134.086 246.405,134.278 245.762 C 134.652 244.512,134.520 243.894,134.108 244.966 M132.553 249.708 C 132.190 250.468,131.976 251.089,132.075 251.089 C 132.346 251.089,133.549 248.664,133.368 248.483 C 133.282 248.397,132.915 248.948,132.553 249.708 M27.675 253.008 C 28.338 253.846,29.195 254.782,29.578 255.088 C 29.961 255.393,29.495 254.708,28.541 253.564 C 26.541 251.166,25.879 250.742,27.675 253.008 M129.288 254.356 L 127.723 256.040 129.406 254.474 C 130.971 253.018,131.271 252.673,130.971 252.673 C 130.907 252.673,130.149 253.431,129.288 254.356 M213.069 254.257 C 213.535 254.911,214.004 255.446,214.113 255.446 C 214.222 255.446,213.931 254.911,213.465 254.257 C 213.000 253.604,212.530 253.069,212.421 253.069 C 212.312 253.069,212.604 253.604,213.069 254.257 M215.014 256.963 C 215.228 257.362,215.713 257.942,216.094 258.250 C 216.522 258.598,216.426 258.321,215.843 257.525 C 214.803 256.104,214.413 255.840,215.014 256.963 M158.812 260.198 L 145.941 260.413 158.689 260.503 C 166.861 260.561,171.526 260.452,171.683 260.198 C 171.818 259.980,171.873 259.843,171.806 259.893 C 171.738 259.943,165.891 260.080,158.812 260.198 M43.663 260.482 C 44.262 260.572,45.243 260.572,45.842 260.482 C 46.441 260.391,45.950 260.317,44.752 260.317 C 43.554 260.317,43.064 260.391,43.663 260.482 M110.495 260.603 C 109.698 260.776,110.538 260.814,112.475 260.694 C 114.327 260.579,115.916 260.421,116.007 260.342 C 116.301 260.086,111.923 260.293,110.495 260.603 M47.624 260.867 C 48.005 260.967,48.629 260.967,49.010 260.867 C 49.391 260.767,49.079 260.686,48.317 260.686 C 47.554 260.686,47.243 260.767,47.624 260.867 M74.929 261.681 C 77.258 261.751,81.179 261.752,83.641 261.682 C 86.104 261.612,84.198 261.555,79.406 261.555 C 74.614 261.555,72.599 261.612,74.929 261.681 " stroke="none" fill="#8c94bb" fill-rule="evenodd"></path><path id="path4" d="M299.519 116.729 C 300.780 116.808,302.740 116.807,303.876 116.727 C 305.011 116.647,303.980 116.583,301.584 116.584 C 299.188 116.585,298.259 116.650,299.519 116.729 M132.458 133.465 C 132.458 142.287,132.510 145.896,132.574 141.485 C 132.638 137.074,132.638 129.856,132.574 125.446 C 132.510 121.035,132.458 124.644,132.458 133.465 M159.789 139.010 C 159.789 150.881,159.839 155.738,159.901 149.802 C 159.962 143.866,159.962 134.153,159.901 128.218 C 159.839 122.282,159.789 127.139,159.789 139.010 M328.502 139.010 C 328.502 150.881,328.552 155.738,328.614 149.802 C 328.675 143.866,328.675 134.153,328.614 128.218 C 328.552 122.282,328.502 127.139,328.502 139.010 M301.292 127.013 C 301.784 127.108,302.497 127.104,302.876 127.005 C 303.255 126.906,302.851 126.828,301.980 126.833 C 301.109 126.837,300.799 126.918,301.292 127.013 M348.218 127.029 C 351.213 127.096,356.114 127.096,359.109 127.029 C 362.104 126.961,359.653 126.906,353.663 126.906 C 347.673 126.906,345.223 126.961,348.218 127.029 M342.437 142.475 C 342.335 142.639,345.399 142.727,349.245 142.671 C 362.158 142.483,363.439 142.343,352.994 142.260 C 347.289 142.215,342.538 142.312,342.437 142.475 M153.069 155.248 C 153.069 158.255,153.203 160.634,153.366 160.533 C 153.530 160.432,153.663 158.053,153.663 155.248 C 153.663 152.442,153.530 150.063,153.366 149.962 C 153.203 149.861,153.069 152.240,153.069 155.248 M346.733 150.774 C 356.644 151.055,365.454 151.063,365.286 150.792 C 365.185 150.629,360.078 150.533,353.937 150.579 C 347.796 150.625,344.554 150.713,346.733 150.774 M300.896 151.171 C 301.388 151.266,302.101 151.262,302.480 151.163 C 302.859 151.064,302.455 150.987,301.584 150.991 C 300.713 150.995,300.403 151.076,300.896 151.171 M145.933 219.010 C 145.933 241.554,145.981 250.777,146.040 239.505 C 146.098 228.233,146.098 209.787,146.040 198.515 C 145.981 187.243,145.933 196.465,145.933 219.010 M235.811 196.040 C 235.811 200.505,235.868 202.332,235.939 200.099 C 236.010 197.866,236.010 194.213,235.939 191.980 C 235.868 189.748,235.811 191.574,235.811 196.040 M76.949 198.315 C 78.647 198.389,81.320 198.388,82.889 198.313 C 84.459 198.239,83.069 198.178,79.802 198.178 C 76.535 198.179,75.251 198.240,76.949 198.315 M22.270 206.733 C 22.270 207.495,22.352 207.807,22.451 207.426 C 22.551 207.045,22.551 206.421,22.451 206.040 C 22.352 205.658,22.270 205.970,22.270 206.733 M135.949 208.317 C 135.949 209.297,136.027 209.698,136.121 209.208 C 136.215 208.718,136.215 207.916,136.121 207.426 C 136.027 206.936,135.949 207.337,135.949 208.317 M110.654 220.594 C 110.654 223.970,110.715 225.351,110.789 223.663 C 110.864 221.975,110.864 219.213,110.789 217.525 C 110.715 215.837,110.654 217.218,110.654 220.594 M135.955 229.901 C 135.958 230.990,136.035 231.389,136.126 230.787 C 136.217 230.185,136.214 229.294,136.120 228.806 C 136.026 228.319,135.952 228.812,135.955 229.901 M172.011 257.228 C 172.013 258.752,172.084 259.328,172.170 258.506 C 172.256 257.684,172.255 256.437,172.167 255.734 C 172.080 255.031,172.009 255.703,172.011 257.228 M57.327 261.270 C 57.817 261.364,58.619 261.364,59.109 261.270 C 59.599 261.175,59.198 261.098,58.218 261.098 C 57.238 261.098,56.837 261.175,57.327 261.270 M99.307 261.270 C 99.797 261.364,100.599 261.364,101.089 261.270 C 101.579 261.175,101.178 261.098,100.198 261.098 C 99.218 261.098,98.817 261.175,99.307 261.270 " stroke="none" fill="#8494bf" fill-rule="evenodd"></path></g></svg>